<svg width="800" height="500" viewBox="0 0 800 500" fill="none" xmlns="http://www.w3.org/2000/svg">
  <!-- Browser window mockup -->
  <rect x="20" y="20" width="760" height="460" rx="8" fill="#ffffff" stroke="#e5e7eb" stroke-width="2"/>
  <!-- Browser header -->
  <rect x="20" y="20" width="760" height="40" rx="8" fill="#f9fafb"/>
  <circle cx="45" cy="40" r="6" fill="#ef4444"/>
  <circle cx="65" cy="40" r="6" fill="#f59e0b"/>
  <circle cx="85" cy="40" r="6" fill="#10b981"/>
  <rect x="110" y="32" width="200" height="16" rx="8" fill="#e5e7eb"/>
  <!-- Dashboard content -->
  <rect x="40" y="80" width="160" height="100" rx="4" fill="#f3f4f6"/>
  <rect x="40" y="190" width="160" height="20" rx="2" fill="#e5e7eb"/>
  <rect x="40" y="220" width="120" height="20" rx="2" fill="#e5e7eb"/>
  <rect x="220" y="80" width="160" height="100" rx="4" fill="#f3f4f6"/>
  <rect x="220" y="190" width="160" height="20" rx="2" fill="#e5e7eb"/>
  <rect x="220" y="220" width="140" height="20" rx="2" fill="#e5e7eb"/>
  <rect x="400" y="80" width="160" height="100" rx="4" fill="#f3f4f6"/>
  <rect x="400" y="190" width="160" height="20" rx="2" fill="#e5e7eb"/>
  <rect x="400" y="220" width="130" height="20" rx="2" fill="#e5e7eb"/>
  <rect x="580" y="80" width="160" height="100" rx="4" fill="#f3f4f6"/>
  <rect x="580" y="190" width="160" height="20" rx="2" fill="#e5e7eb"/>
  <rect x="580" y="220" width="150" height="20" rx="2" fill="#e5e7eb"/>
  <!-- Sidebar -->
  <rect x="40" y="280" width="720" height="160" rx="4" fill="#f9fafb"/>
  <text x="400" y="250" text-anchor="middle" fill="#6b7280" font-family="Arial, sans-serif" font-size="16">Dashboard Preview Placeholder</text>
</svg>
