<svg width="300" height="600" viewBox="0 0 300 600" fill="none" xmlns="http://www.w3.org/2000/svg">
  <!-- Phone mockup -->
  <rect x="30" y="20" width="240" height="560" rx="30" fill="#1f2937" stroke="#374151" stroke-width="4"/>
  <!-- Screen -->
  <rect x="40" y="60" width="220" height="480" rx="20" fill="#ffffff"/>
  <!-- Status bar -->
  <rect x="40" y="60" width="220" height="30" rx="20" fill="#f9fafb"/>
  <circle cx="60" cy="75" r="8" fill="#10b981"/>
  <rect x="80" y="70" width="40" height="10" rx="5" fill="#e5e7eb"/>
  <circle cx="240" cy="75" r="8" fill="#fbbf24"/>
  <!-- App content -->
  <rect x="50" y="110" width="200" height="60" rx="4" fill="#f3f4f6"/>
  <rect x="50" y="180" width="200" height="40" rx="4" fill="#f3f4f6"/>
  <rect x="50" y="230" width="200" height="40" rx="4" fill="#f3f4f6"/>
  <rect x="50" y="280" width="180" height="40" rx="4" fill="#f3f4f6"/>
  <rect x="50" y="330" width="160" height="40" rx="4" fill="#f3f4f6"/>
  <!-- Navigation -->
  <rect x="40" y="500" width="220" height="50" rx="20" fill="#f9fafb"/>
  <circle cx="80" cy="525" r="15" fill="#6366f1"/>
  <circle cx="150" cy="525" r="15" fill="#d1d5db"/>
  <circle cx="220" cy="525" r="15" fill="#d1d5db"/>
  <text x="150" y="400" text-anchor="middle" fill="#6b7280" font-family="Arial, sans-serif" font-size="14">Mobile Preview</text>
  <text x="150" y="420" text-anchor="middle" fill="#6b7280" font-family="Arial, sans-serif" font-size="12">Placeholder</text>
</svg>
