<svg width="600" height="400" viewBox="0 0 600 400" fill="none" xmlns="http://www.w3.org/2000/svg">
  <!-- Browser window -->
  <rect x="10" y="10" width="580" height="380" rx="6" fill="#ffffff" stroke="#e5e7eb" stroke-width="2"/>
  <!-- Browser header -->
  <rect x="10" y="10" width="580" height="35" rx="6" fill="#f9fafb"/>
  <circle cx="30" cy="27.5" r="5" fill="#ef4444"/>
  <circle cx="45" cy="27.5" r="5" fill="#f59e0b"/>
  <circle cx="60" cy="27.5" r="5" fill="#10b981"/>
  <rect x="80" y="22" width="150" height="11" rx="5.5" fill="#e5e7eb"/>
  <!-- Next.js logo -->
  <circle cx="550" cy="27.5" r="8" fill="#000000"/>
  <text x="550" y="32" text-anchor="middle" fill="white" font-family="Arial, sans-serif" font-size="10" font-weight="bold">▲</text>
  <!-- Dashboard content -->
  <rect x="25" y="60" width="120" height="80" rx="4" fill="#f3f4f6"/>
  <rect x="25" y="150" width="120" height="15" rx="2" fill="#e5e7eb"/>
  <rect x="25" y="175" width="90" height="15" rx="2" fill="#e5e7eb"/>
  <rect x="160" y="60" width="120" height="80" rx="4" fill="#f3f4f6"/>
  <rect x="160" y="150" width="120" height="15" rx="2" fill="#e5e7eb"/>
  <rect x="160" y="175" width="100" height="15" rx="2" fill="#e5e7eb"/>
  <rect x="295" y="60" width="120" height="80" rx="4" fill="#f3f4f6"/>
  <rect x="295" y="150" width="120" height="15" rx="2" fill="#e5e7eb"/>
  <rect x="295" y="175" width="110" height="15" rx="2" fill="#e5e7eb"/>
  <!-- Sidebar -->
  <rect x="440" y="60" width="140" height="300" rx="4" fill="#f9fafb" stroke="#e5e7eb" stroke-width="1"/>
  <rect x="450" y="80" width="120" height="20" rx="2" fill="#e5e7eb"/>
  <rect x="450" y="110" width="100" height="15" rx="2" fill="#d1d5db"/>
  <rect x="450" y="135" width="90" height="15" rx="2" fill="#d1d5db"/>
  <rect x="450" y="160" width="110" height="15" rx="2" fill="#d1d5db"/>
  <!-- Tech stack badges -->
  <rect x="25" y="350" width="55" height="20" rx="10" fill="#000000"/>
  <text x="52.5" y="362" text-anchor="middle" fill="white" font-family="Arial, sans-serif" font-size="10">Next.js</text>
  <rect x="90" y="350" width="50" height="20" rx="10" fill="#61dafb"/>
  <text x="115" y="362" text-anchor="middle" fill="#282c34" font-family="Arial, sans-serif" font-size="10">React</text>
  <rect x="150" y="350" width="60" height="20" rx="10" fill="#3178c6"/>
  <text x="180" y="362" text-anchor="middle" fill="white" font-family="Arial, sans-serif" font-size="10">TypeScript</text>
</svg>
