<svg width="600" height="400" viewBox="0 0 600 400" fill="none" xmlns="http://www.w3.org/2000/svg">
  <!-- Browser window -->
  <rect x="10" y="10" width="580" height="380" rx="6" fill="#ffffff" stroke="#e5e7eb" stroke-width="2"/>
  <!-- Browser header -->
  <rect x="10" y="10" width="580" height="35" rx="6" fill="#f9fafb"/>
  <circle cx="30" cy="27.5" r="5" fill="#ef4444"/>
  <circle cx="45" cy="27.5" r="5" fill="#f59e0b"/>
  <circle cx="60" cy="27.5" r="5" fill="#10b981"/>
  <rect x="80" y="22" width="150" height="11" rx="5.5" fill="#e5e7eb"/>
  <!-- Vite logo -->
  <circle cx="550" cy="27.5" r="8" fill="#646cff"/>
  <text x="550" y="32" text-anchor="middle" fill="white" font-family="Arial, sans-serif" font-size="8" font-weight="bold">V</text>
  <!-- Left sidebar -->
  <rect x="25" y="60" width="150" height="300" rx="4" fill="#f9fafb" stroke="#e5e7eb" stroke-width="1"/>
  <rect x="35" y="80" width="130" height="15" rx="2" fill="#e5e7eb"/>
  <rect x="35" y="105" width="110" height="12" rx="1.5" fill="#d1d5db"/>
  <rect x="35" y="125" width="100" height="12" rx="1.5" fill="#d1d5db"/>
  <rect x="35" y="145" width="120" height="12" rx="1.5" fill="#d1d5db"/>
  <rect x="35" y="165" width="90" height="12" rx="1.5" fill="#d1d5db"/>
  <rect x="35" y="185" width="115" height="12" rx="1.5" fill="#d1d5db"/>
  <!-- Main content -->
  <rect x="190" y="60" width="380" height="300" rx="4" fill="#ffffff"/>
  <rect x="200" y="80" width="150" height="25" rx="2" fill="#f3f4f6"/>
  <rect x="200" y="115" width="360" height="8" rx="4" fill="#e5e7eb"/>
  <rect x="200" y="135" width="320" height="8" rx="4" fill="#e5e7eb"/>
  <rect x="200" y="155" width="340" height="8" rx="4" fill="#e5e7eb"/>
  <rect x="200" y="175" width="280" height="8" rx="4" fill="#e5e7eb"/>
  <rect x="200" y="195" width="360" height="8" rx="4" fill="#e5e7eb"/>
  <!-- Code block -->
  <rect x="200" y="225" width="360" height="80" rx="4" fill="#f8fafc" stroke="#e2e8f0" stroke-width="1"/>
  <rect x="210" y="235" width="340" height="6" rx="3" fill="#e2e8f0"/>
  <rect x="210" y="250" width="300" height="6" rx="3" fill="#e2e8f0"/>
  <rect x="210" y="265" width="320" height="6" rx="3" fill="#e2e8f0"/>
  <rect x="210" y="280" width="280" height="6" rx="3" fill="#e2e8f0"/>
  <!-- Tech stack badges -->
  <rect x="25" y="350" width="55" height="20" rx="10" fill="#646cff"/>
  <text x="52.5" y="362" text-anchor="middle" fill="white" font-family="Arial, sans-serif" font-size="10">Vite</text>
  <rect x="90" y="350" width="50" height="20" rx="10" fill="#41b883"/>
  <text x="115" y="362" text-anchor="middle" fill="white" font-family="Arial, sans-serif" font-size="10">Vue</text>
  <rect x="150" y="350" width="60" height="20" rx="10" fill="#3178c6"/>
  <text x="180" y="362" text-anchor="middle" fill="white" font-family="Arial, sans-serif" font-size="10">TypeScript</text>
</svg>
